<?xml version="1.0" encoding="UTF-8"?>
<svg version="1.1" xmlns="http://www.w3.org/2000/svg" width="2179" height="2179">
<path d="M0 0 C2.71022004 -0.0031383 5.42041531 -0.00746666 8.13062876 -0.0132131 C13.98780914 -0.023281 19.84490537 -0.0224786 25.70208734 -0.01416247 C34.47048447 -0.00176972 43.23881468 -0.0069599 52.00721352 -0.01531039 C66.95905533 -0.02904592 81.91086642 -0.028692 96.86271095 -0.02046776 C111.9993432 -0.01219278 127.13595526 -0.01048994 142.27258873 -0.01667976 C143.71055886 -0.01726104 143.71055886 -0.01726104 145.17757889 -0.01785406 C149.08246585 -0.019454 152.98735279 -0.02110015 156.89223972 -0.02280489 C193.20273286 -0.03864556 229.51321248 -0.0397611 265.82370758 -0.03136253 C266.89810965 -0.03111415 267.97251171 -0.03086576 269.07947141 -0.03060985 C270.6936743 -0.03023666 270.6936743 -0.03023666 272.34048735 -0.02985594 C305.15647979 -0.02227939 337.97246664 -0.02033547 370.78845978 -0.02392387 C372.98796278 -0.02415631 375.18746579 -0.02438778 377.3869688 -0.02461828 C386.22637926 -0.02554973 395.06578973 -0.02650573 403.90520019 -0.02749758 C428.61334426 -0.03024828 453.32148836 -0.03196032 478.02963257 -0.03285599 C479.71720547 -0.03291739 479.71720547 -0.03291739 481.43887074 -0.03298004 C517.2752321 -0.03420745 553.11159152 -0.03082941 588.94795227 -0.02430725 C590.6908318 -0.02399113 590.6908318 -0.02399113 592.46892102 -0.02366862 C611.33644962 -0.02023399 630.20397817 -0.0165755 649.07150672 -0.0128981 C723.89724268 0.00167034 798.72296254 0.00099414 873.54869843 -0.01358986 C892.40682473 -0.01725358 911.26495104 -0.0208868 930.12307739 -0.02430725 C931.28432042 -0.0245186 932.44556344 -0.02472994 933.64199565 -0.02494769 C969.44179639 -0.0314185 1005.24159579 -0.03415864 1041.04139709 -0.03285599 C1042.16561427 -0.03281523 1043.28983145 -0.03277448 1044.44811581 -0.03273249 C1069.12904148 -0.03179496 1093.809967 -0.02989386 1118.49089253 -0.02712448 C1127.32228953 -0.0261371 1136.15368653 -0.02519785 1144.98508353 -0.02427235 C1147.18200343 -0.02404018 1149.37892333 -0.02380399 1151.57584323 -0.02356376 C1184.38108393 -0.01998638 1217.18631833 -0.02302569 1249.99155825 -0.03060985 C1251.60316135 -0.03098243 1251.60316135 -0.03098243 1253.24732208 -0.03136253 C1254.31973265 -0.03161058 1255.39214321 -0.03185863 1256.49705107 -0.03211419 C1292.7051292 -0.04039748 1328.91319114 -0.03732752 1365.12126696 -0.0215203 C1369.01365827 -0.01986332 1372.90604959 -0.0182532 1376.79844093 -0.01667976 C1377.75366718 -0.01628914 1378.70889344 -0.01589852 1379.69306594 -0.01549607 C1394.78536301 -0.00959137 1409.87763985 -0.01368529 1424.96993509 -0.02198678 C1439.82933367 -0.02994535 1454.68869831 -0.0270957 1469.54809261 -0.01294452 C1478.24598071 -0.00497593 1486.94377545 -0.0050399 1495.64165897 -0.01738931 C1501.43682352 -0.02478436 1507.23191623 -0.02107616 1513.02707221 -0.00878875 C1516.300131 -0.00214572 1519.57297301 -0.0014943 1522.84602913 -0.0112383 C1545.37504112 -0.07349623 1567.92605734 1.27238119 1589.97301483 6.19002342 C1591.16918427 6.44791649 1592.3653537 6.70580956 1593.59777069 6.97151756 C1604.21862103 9.31315034 1614.67659563 12.06613325 1625.03551483 15.37752342 C1626.27688202 15.77342674 1626.27688202 15.77342674 1627.54332733 16.17732811 C1655.59417586 25.26345823 1682.8073885 38.57323222 1707.03551483 55.37752342 C1707.65990448 55.8066201 1708.28429413 56.23571678 1708.92760468 56.67781639 C1716.94295332 62.20629269 1724.5934295 68.0947059 1732.03551483 74.37752342 C1733.05516327 75.21154686 1734.07481171 76.0455703 1735.12535858 76.90486717 C1748.73833046 88.15510695 1762.17813589 100.66143047 1772.94298553 114.70247459 C1775.12681853 117.4942443 1777.41101601 120.17663239 1779.71520233 122.86971092 C1784.96082354 129.10009903 1789.56357376 135.69722159 1794.03551483 142.50252342 C1794.42425781 143.09045677 1794.81300079 143.67839012 1795.21352386 144.28413963 C1801.66413329 154.05334123 1807.74255494 163.92822458 1813.03551483 174.37752342 C1813.6934201 175.66674706 1813.6934201 175.66674706 1814.36461639 176.98201561 C1832.53393153 212.901647 1843.70149361 251.37093115 1848.03551483 291.37752342 C1848.12480855 292.18251135 1848.21410226 292.98749929 1848.30610184 293.81688079 C1849.44118459 305.98980562 1849.17607952 318.21815453 1849.1669426 330.43102837 C1849.1685934 333.11663241 1849.17063949 335.80223356 1849.1731627 338.48783666 C1849.17786097 344.33767677 1849.17886499 350.18750843 1849.17743436 356.03735012 C1849.17530837 364.7950259 1849.17893341 373.55269296 1849.18364913 382.3103674 C1849.19151375 397.2381376 1849.19461073 412.16590541 1849.19509506 427.09367752 C1849.19559767 442.22048051 1849.19824683 457.34728083 1849.20350266 472.47408295 C1849.20383279 473.42975907 1849.20416292 474.3854352 1849.20450306 475.3700712 C1849.20585308 479.26246844 1849.20721575 483.15486568 1849.20859517 487.0472629 C1849.22489281 533.11748207 1849.23128326 579.18770073 1849.23604303 625.2579223 C1849.23842688 648.20212802 1849.2421305 671.14633345 1849.24608013 694.09053895 C1849.25874453 767.70229268 1849.26952815 841.31404641 1849.27292059 914.92580121 C1849.27308283 918.44366823 1849.27324839 921.96153525 1849.27341498 925.47940226 C1849.27374877 932.53444383 1849.27407925 939.58948539 1849.27440953 946.64452696 C1849.27479643 954.9041225 1849.27518604 963.16371804 1849.2755806 971.42331359 C1849.27569302 973.78726957 1849.27580443 976.15122556 1849.27591485 978.51518154 C1849.27946367 1054.4241651 1849.29453959 1130.3331392 1849.31785259 1206.24211915 C1849.3345988 1260.79117769 1849.3500712 1315.34023444 1849.35458755 1369.88929558 C1849.35472778 1371.57275562 1849.35472778 1371.57275562 1849.35487085 1373.29022497 C1849.3568901 1397.93023839 1849.35804597 1422.57025179 1849.35839943 1447.2102653 C1849.3585356 1456.02753036 1849.35874459 1464.84479542 1849.35899268 1473.66206048 C1849.35905424 1475.85552587 1849.35911256 1478.04899127 1849.35916763 1480.24245667 C1849.36008669 1515.16540623 1849.37004579 1550.0883459 1849.38462512 1585.01129221 C1849.39925593 1620.19843122 1849.40427378 1655.38555811 1849.39620558 1690.57269963 C1849.39509029 1695.44131537 1849.3940796 1700.30993113 1849.39313126 1705.17854691 C1849.39294129 1706.13287695 1849.39275132 1707.087207 1849.3925556 1708.07045614 C1849.38982814 1723.14596001 1849.39714399 1738.22144137 1849.40870462 1753.29694036 C1849.41987765 1768.14201351 1849.42024455 1782.98705501 1849.40933444 1797.83212869 C1849.40326701 1806.52081281 1849.40525473 1815.20940108 1849.41958641 1823.89807604 C1849.42830368 1829.68855596 1849.42588291 1835.47896627 1849.4148877 1841.26944204 C1849.40897703 1844.53906172 1849.40905349 1847.80846238 1849.41957256 1851.07807557 C1849.64997966 1927.80473368 1825.10554635 2002.00863105 1776.03551483 2061.37752342 C1775.57306366 2061.94293846 1775.11061249 2062.5083535 1774.63414764 2063.09090233 C1767.65940773 2071.56836871 1760.14557317 2079.46617159 1752.41051483 2087.25252342 C1751.12298309 2088.55395287 1751.12298309 2088.55395287 1749.80944061 2089.88167381 C1743.85987483 2095.8023362 1737.5990888 2101.15244837 1731.03551483 2106.37752342 C1729.75759797 2107.42602334 1728.48131238 2108.47651779 1727.20738983 2109.52986717 C1718.82324027 2116.38581221 1710.20147389 2122.61100347 1701.03551483 2128.37752342 C1700.3026828 2128.84126366 1699.56985077 2129.30500389 1698.81481171 2129.78279686 C1662.53007934 2152.58642589 1622.31454462 2168.34391479 1580.03551483 2175.56502342 C1579.13591034 2175.71995262 1578.23630585 2175.87488182 1577.30944061 2176.03450584 C1558.55059346 2179.06742278 1539.995226 2179.6670766 1521.02138424 2179.63199902 C1518.31678038 2179.63439249 1515.61218773 2179.63757842 1512.90758702 2179.64171562 C1507.03785305 2179.64911217 1501.16815544 2179.64918557 1495.29841935 2179.64432613 C1486.51110649 2179.63708737 1477.72382468 2179.64146912 1468.93651262 2179.64800748 C1453.95558963 2179.658815 1438.97467923 2179.66017143 1423.99375343 2179.65630913 C1408.81990104 2179.65242838 1393.64605803 2179.65289499 1378.47220612 2179.65861893 C1377.03259975 2179.65915717 1377.03259975 2179.65915717 1375.56391043 2179.65970628 C1371.6547935 2179.66118125 1367.74567657 2179.66268565 1363.83655967 2179.66422774 C1324.18539766 2179.67985097 1284.53424209 2179.68254297 1244.88307756 2179.68007168 C1239.40692158 2179.67973322 1233.93076561 2179.67941113 1228.45460963 2179.679106 C1227.3668624 2179.67904495 1226.27911518 2179.67898391 1225.15840591 2179.67892102 C1201.0378648 2179.67764839 1176.91732458 2179.68025185 1152.79678373 2179.68363206 C1147.28694147 2179.68440281 1141.7770992 2179.68514754 1136.26725693 2179.68589708 C1134.05587887 2179.68619877 1131.84450082 2179.68650065 1129.63312276 2179.68680272 C1128.53697036 2179.6869524 1127.44081797 2179.68710208 1126.31144884 2179.6872563 C1124.09420716 2179.68755983 1121.87696547 2179.68786451 1119.65972378 2179.68817034 C1056.75515359 2179.69684215 993.85058417 2179.70148817 930.94601345 2179.69722271 C929.78148741 2179.69714465 928.61696137 2179.6970666 927.41714666 2179.69698617 C914.43184646 2179.6961134 901.44654626 2179.69518413 888.46124607 2179.69423554 C887.28889548 2179.69415003 886.1165449 2179.69406452 884.90866854 2179.69397642 C875.16821809 2179.69326568 875.16821809 2179.69326568 870.68545784 2179.69293419 C795.70391275 2179.68739885 720.72237997 2179.69493982 645.7408371 2179.71370506 C626.84809846 2179.7184274 607.95535982 2179.72310797 589.06262112 2179.72754192 C587.31759195 2179.72795191 587.31759195 2179.72795191 585.53730967 2179.72837017 C549.67308457 2179.73674351 513.8088605 2179.74142132 477.94463444 2179.74224949 C476.8183949 2179.74227586 475.69215537 2179.74230222 474.53178736 2179.74232939 C449.80635298 2179.74287021 425.08091868 2179.74249762 400.35548432 2179.74128967 C391.5079921 2179.74086406 382.66049989 2179.74049893 373.81300767 2179.74016023 C371.61204379 2179.74007493 369.4110799 2179.73998599 367.21011601 2179.73989341 C332.16542073 2179.7384457 297.12073382 2179.74556401 262.07604054 2179.75689737 C225.79069785 2179.76855596 189.50537009 2179.76910173 153.22002732 2179.75705395 C149.31956189 2179.75580217 145.41909644 2179.75459868 141.51863098 2179.75343323 C140.56141651 2179.75314293 139.60420204 2179.75285264 138.61798107 2179.75255355 C123.49116955 2179.74823639 108.36437934 2179.7539446 93.23757117 2179.76387342 C78.34572241 2179.77343532 63.45390636 2179.77220252 48.56205947 2179.7596672 C39.84383438 2179.75264534 31.12570361 2179.75368402 22.40748535 2179.76701558 C16.60005361 2179.77506405 10.7926925 2179.77201701 4.98526713 2179.76036594 C1.70438993 2179.75408171 -1.5762695 2179.7538163 -4.85714223 2179.76393315 C-77.71393748 2179.97309897 -148.62688617 2156.64855308 -205.96448517 2111.37752342 C-206.86940704 2110.66467186 -207.77432892 2109.9518203 -208.70667267 2109.21736717 C-214.78101572 2104.33896419 -220.5381201 2099.17683339 -226.24182892 2093.87752342 C-228.37929389 2091.91485831 -230.53815805 2090.03317416 -232.77698517 2088.19002342 C-235.93708028 2085.52727985 -238.55172425 2082.51505295 -241.22229767 2079.36971092 C-242.8552216 2077.50246607 -244.55377655 2075.78489946 -246.33948517 2074.06502342 C-250.95257351 2069.50296482 -254.95312072 2064.46639307 -258.96448517 2059.37752342 C-259.70408478 2058.44456444 -259.70408478 2058.44456444 -260.45862579 2057.4927578 C-307.27899462 1998.20235239 -330.56531455 1926.76939482 -330.34200859 1851.47082329 C-330.34514636 1848.75464442 -330.34947422 1846.03849031 -330.35522169 1843.32231802 C-330.36529559 1837.44896325 -330.36448281 1831.57569238 -330.35617106 1825.70233601 C-330.3437848 1816.90972437 -330.34896576 1808.1171795 -330.35731898 1799.32456616 C-330.37105843 1784.33189242 -330.37069865 1769.33924932 -330.36247635 1754.34657288 C-330.35420276 1739.16759496 -330.35249743 1723.98863718 -330.35868835 1708.80965805 C-330.35907587 1707.84849975 -330.35946339 1706.88734144 -330.35986265 1705.89705713 C-330.36146259 1701.98197038 -330.36310873 1698.06688365 -330.36481348 1694.15179694 C-330.380656 1657.74243137 -330.38176887 1621.33307929 -330.37337112 1584.92371178 C-330.37312274 1583.84627964 -330.37287435 1582.76884749 -330.37261844 1581.6587659 C-330.37236965 1580.57959676 -330.37212086 1579.50042763 -330.37186453 1578.38855641 C-330.36428864 1545.4829657 -330.36234375 1512.57738056 -330.36593246 1479.67178917 C-330.3661649 1477.46646874 -330.36639637 1475.26114831 -330.36662687 1473.05582787 C-330.36755831 1464.19308706 -330.36851432 1455.33034626 -330.36950617 1446.46760545 C-330.3722569 1421.69409112 -330.37396891 1396.92057677 -330.37486458 1372.1470623 C-330.37490552 1371.0190276 -330.37494645 1369.8909929 -330.37498863 1368.72877534 C-330.37621608 1332.79611587 -330.3728378 1296.86345834 -330.36631584 1260.93079948 C-330.36610509 1259.76571988 -330.36589435 1258.60064028 -330.36567721 1257.40025524 C-330.36224256 1238.4812934 -330.35858408 1219.5623316 -330.35490669 1200.6433698 C-330.3403382 1125.61317995 -330.3410144 1050.58300617 -330.35559845 975.55281639 C-330.35926216 956.6432934 -330.36289537 937.7337704 -330.36631584 918.82424736 C-330.36652719 917.65984692 -330.36673853 916.49544648 -330.36695628 915.29576117 C-330.37342688 879.39983537 -330.37616727 843.50391091 -330.37486458 807.60798454 C-330.37482383 806.48078298 -330.37478307 805.35358141 -330.37474108 804.19222222 C-330.37380356 779.44602016 -330.37190247 754.69981824 -330.36913307 729.95361631 C-330.36814569 721.09889968 -330.36720644 712.24418304 -330.36628094 703.3894664 C-330.36604877 701.1867359 -330.36581258 698.98400539 -330.36557235 696.78127489 C-330.36199465 663.88627455 -330.36503491 630.9912805 -330.37261844 598.09628095 C-330.37286682 597.01884881 -330.37311521 595.94141667 -330.37337112 594.83133507 C-330.37374319 593.21818119 -330.37374319 593.21818119 -330.37412278 591.57243834 C-330.38240521 555.26598739 -330.37933785 518.95955259 -330.36352889 482.65310395 C-330.36187191 478.75053225 -330.36026179 474.84796053 -330.35868835 470.94538879 C-330.35829773 469.98766112 -330.35790711 469.02993344 -330.35750466 468.04318371 C-330.35159881 452.90833619 -330.3556951 437.77350883 -330.36399537 422.63866313 C-330.37195186 407.73914931 -330.36910805 392.83966935 -330.35495311 377.9401598 C-330.3469814 369.21757963 -330.34705404 360.49509257 -330.3593979 351.77251697 C-330.36678826 345.96226512 -330.36309191 340.15208499 -330.35079734 334.34184171 C-330.34414887 331.05938106 -330.34351241 327.77713694 -330.35324689 324.49467891 C-330.41415392 302.37127196 -328.98378104 280.34702206 -324.21448517 258.69002342 C-323.95699493 257.49272606 -323.6995047 256.2954287 -323.43421173 255.06184959 C-309.33403933 191.2005946 -277.20268256 136.8578194 -231.46448517 90.69002342 C-230.59823517 89.8106411 -229.73198517 88.93125877 -228.83948517 88.0252285 C-222.86317579 82.04160625 -216.59502964 76.6221754 -209.96448517 71.37752342 C-208.90456246 70.5194837 -207.84466073 69.66141807 -206.78479767 68.80330467 C-147.10023289 22.00714591 -75.38666832 -0.22442863 0 0 Z " fill="#0152FE" transform="translate(329.96448516845703,-0.37752342224121094)"/>
<path d="M0 0 C4.51321792 0.00568812 9.02637684 0.00230468 13.53959274 -0.00342178 C45.16637839 -0.03789815 45.16637839 -0.03789815 60.27832031 0.51318359 C61.22532806 0.54354706 62.17233582 0.57391052 63.14804077 0.60519409 C71.23065444 0.96515471 75.29600221 2.92476313 80.89550781 8.74365234 C83.91303702 12.08370732 86.74077609 15.55874612 89.56347656 19.06396484 C100.63635998 32.70951192 112.04524851 44.47155199 126.05175781 55.13037109 C126.69209961 55.62085938 127.33244141 56.11134766 127.9921875 56.61669922 C157.62099777 79.28532513 189.47545595 99.00595341 222.05175781 117.13037109 C222.96538086 117.63938965 223.87900391 118.1484082 224.8203125 118.67285156 C256.15304178 136.03636095 288.38527253 151.86395537 321.1652832 166.29943848 C323.01568884 167.11448385 324.8648794 167.93223237 326.71386719 168.75048828 C364.07186055 185.2426756 401.96453789 200.41465106 440.05175781 215.13037109 C441.50488373 215.69271454 441.50488373 215.69271454 442.98736572 216.26641846 C462.13137604 223.67211036 481.33794317 230.90840536 500.55175781 238.13037109 C534.05436758 250.72311773 534.05436758 250.72311773 549.77050781 256.75537109 C550.81920044 257.15715576 551.86789307 257.55894043 552.94836426 257.97290039 C553.9202771 258.34713135 554.89218994 258.7213623 555.89355469 259.10693359 C556.72657104 259.42742676 557.5595874 259.74791992 558.41784668 260.078125 C559.72163269 260.59898682 559.72163269 260.59898682 561.05175781 261.13037109 C562.16054291 261.53308511 563.269328 261.93579912 564.41171265 262.35071659 C570.66821734 265.06878735 574.53011653 270.9610013 577.05175781 277.13037109 C578.52887369 283.20946632 578.18457505 289.49471088 578.05761719 295.70288086 C578.05343112 297.54517654 578.05325269 299.38748495 578.05673218 301.2297821 C578.05505017 306.21772399 577.99805266 311.20366807 577.93137169 316.19110608 C577.8706435 321.49226175 577.86307716 326.79350667 577.84973145 332.09495544 C577.81659609 342.19957811 577.73861824 352.30331726 577.64338732 362.40752596 C577.52879581 374.74010256 577.46393803 387.0728196 577.40332031 399.40576172 C577.3868629 402.70530085 577.37034929 406.00483969 577.35380566 409.30437839 C577.34286823 411.48988135 577.33201917 413.67538476 577.32125938 415.8608886 C577.28878014 422.3649478 577.25091387 428.86894969 577.20890081 435.37295401 C576.99999778 467.96467358 577.22528334 500.52537215 577.87331772 533.11080647 C579.14859145 598.94153065 577.7668244 665.31691467 572.23669434 730.92993164 C572.06131425 733.01666525 571.89043062 735.10371813 571.72070312 737.19091797 C566.17321268 804.13632578 555.17427224 872.30320492 533.15380859 935.92578125 C531.97410596 939.35617044 530.82221344 942.79517244 529.67285156 946.23583984 C516.41992083 985.6650092 499.08434955 1023.6738898 477.70800781 1059.36474609 C476.19851531 1061.88531376 474.70207455 1064.41314446 473.20800781 1066.94287109 C462.73092884 1084.53771771 450.67056394 1101.02220627 438.05175781 1117.13037109 C437.32472656 1118.06107422 436.59769531 1118.99177734 435.84863281 1119.95068359 C430.88937701 1126.22031187 425.71994589 1132.31240577 420.53125 1138.39208984 C419.01387918 1140.17487536 417.50502392 1141.96461626 415.99707031 1143.75537109 C410.97119074 1149.70150463 405.92303884 1155.49070576 400.28222656 1160.87255859 C398.36698374 1162.81128075 396.59520513 1164.79042916 394.81738281 1166.85302734 C390.93548496 1171.32563751 386.81188511 1175.51791325 382.61425781 1179.69287109 C381.90205078 1180.40894531 381.18984375 1181.12501953 380.45605469 1181.86279297 C376.42670552 1185.8848227 372.29965912 1189.72338439 367.98754883 1193.43969727 C364.82074606 1196.20550748 361.79054904 1199.11358471 358.73925781 1202.00537109 C353.57591094 1206.86065919 348.32198367 1211.50425634 342.78222656 1215.93115234 C340.27524827 1217.95036376 337.82010423 1220.01516243 335.37426758 1222.10717773 C269.56300571 1278.38627236 192.79726267 1321.80913069 58.40734863 1386.10583496 C55.95071999 1387.17431629 53.49486191 1388.24455567 51.0390625 1389.31494141 C46.00379115 1391.50841489 40.96612236 1393.69631877 35.92675781 1395.88037109 C35.14494141 1396.21925354 34.363125 1396.55813599 33.55761719 1396.9072876 C29.95378329 1398.46763076 26.34697712 1400.01954179 22.73046875 1401.55029297 C20.48951715 1402.50079168 18.29862142 1403.48962438 16.09960938 1404.53857422 C11.24068483 1406.77655638 7.92793453 1407.69303254 2.73681641 1406.13671875 C-3.79252573 1403.68955124 -10.22033015 1401.04660217 -16.63574219 1398.31787109 C-18.24859566 1397.63774796 -19.86163557 1396.95806676 -21.47485352 1396.27880859 C-26.30448971 1394.24141432 -31.12693281 1392.18737536 -35.94824219 1390.13037109 C-37.30760253 1389.55172339 -38.66697673 1388.97310823 -40.02636719 1388.39453125 C-88.04857406 1367.92796759 -135.50084079 1345.88319624 -180.81884766 1319.91796875 C-183.59194538 1318.33389779 -186.37020574 1316.75935967 -189.15156555 1315.18984985 C-191.57679638 1313.82069799 -193.9996746 1312.44741384 -196.42227173 1311.0736084 C-198.11062931 1310.11748653 -199.8012269 1309.16532333 -201.49194336 1308.21337891 C-217.45452528 1299.13394109 -232.78776769 1289.02292197 -248.05541992 1278.83081055 C-250.51102885 1277.19267986 -252.97070472 1275.56078746 -255.43066406 1273.92919922 C-277.51741378 1259.2340825 -298.69648536 1243.40774536 -319.19238281 1226.5703125 C-320.75759811 1225.28671408 -322.32905919 1224.01074038 -323.90136719 1222.73583984 C-342.70000931 1207.48255567 -360.20826429 1191.05006048 -377.29711914 1173.91186523 C-379.53709405 1171.66645529 -381.78246915 1169.4265427 -384.02832031 1167.18701172 C-385.48241761 1165.73225463 -386.93620521 1164.27718791 -388.38964844 1162.82177734 C-389.04703506 1162.16641495 -389.70442169 1161.51105255 -390.38172913 1160.83583069 C-394.76778486 1156.42777844 -398.8989027 1151.84824582 -402.94824219 1147.13037109 C-403.92150677 1146.01257917 -404.89534784 1144.89528854 -405.87011719 1143.77880859 C-412.82143862 1135.75441557 -419.49471352 1127.55955307 -425.94824219 1119.13037109 C-426.52477539 1118.37981445 -427.10130859 1117.62925781 -427.6953125 1116.85595703 C-436.59002097 1105.24459195 -445.05556475 1093.44544526 -452.94824219 1081.13037109 C-453.45000977 1080.35209961 -453.95177734 1079.57382813 -454.46875 1078.77197266 C-482.72799829 1034.73597957 -503.44175969 987.60194552 -520.24575806 938.1895752 C-520.97025463 936.06584564 -521.7038491 933.94537405 -522.43725586 931.82470703 C-526.24709441 920.71472326 -529.4382011 909.49710775 -532.38574219 898.13037109 C-532.6215802 897.22739288 -532.85741821 896.32441467 -533.10040283 895.39407349 C-537.13716152 879.89367427 -540.66702431 864.33507164 -543.68540955 848.60453796 C-544.45451164 844.60081394 -545.26451119 840.6084599 -546.10888672 836.61987305 C-549.26393393 821.57261895 -551.60452184 806.50259203 -553.57861328 791.25756836 C-554.07078368 787.46183166 -554.57685664 783.66814484 -555.08496094 779.87451172 C-557.40997058 762.3257396 -559.31909127 744.75669722 -560.94824219 727.13037109 C-561.0301178 726.24475494 -561.11199341 725.35913879 -561.1963501 724.44668579 C-562.35591008 711.69234049 -563.17520269 698.91315693 -563.94824219 686.13037109 C-564.01718689 685.00270325 -564.08613159 683.8750354 -564.15716553 682.7131958 C-569.05900497 601.44145131 -567.68655246 519.79283869 -565.59814453 438.44161987 C-565.40112622 430.7608588 -565.20706533 423.08002429 -565.01463318 415.39914703 C-564.97058901 413.64525059 -564.92633048 411.89135952 -564.8818512 410.13747406 C-563.68194455 362.80909628 -563.30728595 315.47138611 -562.94824219 268.13037109 C-556.7770796 265.28650153 -550.60701515 262.51810733 -544.28417969 260.02880859 C-543.24386093 259.61813896 -543.24386093 259.61813896 -542.18252563 259.19917297 C-539.8972771 258.29820963 -537.61032752 257.40166049 -535.32324219 256.50537109 C-533.6643455 255.85289129 -532.00549261 255.20030013 -530.34667969 254.54760742 C-514.82045479 248.44590517 -499.26265858 242.42535382 -483.70654297 236.40039062 C-396.10555289 202.5044798 -396.10555289 202.5044798 -309.94824219 165.13037109 C-308.86945801 164.63907715 -307.79067383 164.1477832 -306.67919922 163.64160156 C-270.04581195 146.95812128 -233.74682996 129.40516072 -198.94824219 109.13037109 C-197.58747559 108.34267334 -197.58747559 108.34267334 -196.19921875 107.5390625 C-164.66555688 89.26374597 -133.94743341 69.24692021 -105.51806641 46.39160156 C-103.99052963 45.16434573 -102.45580664 43.94605127 -100.92089844 42.72802734 C-90.70875218 34.53309516 -82.9099599 25.70426973 -75.09667969 15.25146484 C-65.64724202 2.7352072 -65.64724202 2.7352072 -60.31396484 1.54003906 C-40.42646757 -0.88062106 -20.00158413 -0.02542638 0 0 Z " fill="#0152FD" transform="translate(1083.9482421875,385.86962890625)"/>
<path d="M0 0 C4.51321792 0.00568812 9.02637684 0.00230468 13.53959274 -0.00342178 C45.16637839 -0.03789815 45.16637839 -0.03789815 60.27832031 0.51318359 C61.22532806 0.54354706 62.17233582 0.57391052 63.14804077 0.60519409 C71.23065444 0.96515471 75.29600221 2.92476313 80.89550781 8.74365234 C83.91303702 12.08370732 86.74077609 15.55874612 89.56347656 19.06396484 C100.63635998 32.70951192 112.04524851 44.47155199 126.05175781 55.13037109 C126.69209961 55.62085938 127.33244141 56.11134766 127.9921875 56.61669922 C157.62099777 79.28532513 189.47545595 99.00595341 222.05175781 117.13037109 C222.96538086 117.63938965 223.87900391 118.1484082 224.8203125 118.67285156 C256.15304178 136.03636095 288.38527253 151.86395537 321.1652832 166.29943848 C323.01568884 167.11448385 324.8648794 167.93223237 326.71386719 168.75048828 C364.07186055 185.2426756 401.96453789 200.41465106 440.05175781 215.13037109 C441.50488373 215.69271454 441.50488373 215.69271454 442.98736572 216.26641846 C462.13137604 223.67211036 481.33794317 230.90840536 500.55175781 238.13037109 C534.05436758 250.72311773 534.05436758 250.72311773 549.77050781 256.75537109 C550.81920044 257.15715576 551.86789307 257.55894043 552.94836426 257.97290039 C553.9202771 258.34713135 554.89218994 258.7213623 555.89355469 259.10693359 C556.72657104 259.42742676 557.5595874 259.74791992 558.41784668 260.078125 C559.72163269 260.59898682 559.72163269 260.59898682 561.05175781 261.13037109 C562.16054291 261.53308511 563.269328 261.93579912 564.41171265 262.35071659 C570.66821734 265.06878735 574.53011653 270.9610013 577.05175781 277.13037109 C578.52887369 283.20946632 578.18457505 289.49471088 578.05761719 295.70288086 C578.05343112 297.54517654 578.05325269 299.38748495 578.05673218 301.2297821 C578.05505017 306.21772399 577.99805266 311.20366807 577.93137169 316.19110608 C577.8706435 321.49226175 577.86307716 326.79350667 577.84973145 332.09495544 C577.81659609 342.19957811 577.73861824 352.30331726 577.64338732 362.40752596 C577.52879581 374.74010256 577.46393803 387.0728196 577.40332031 399.40576172 C577.3868629 402.70530085 577.37034929 406.00483969 577.35380566 409.30437839 C577.34286823 411.48988135 577.33201917 413.67538476 577.32125938 415.8608886 C577.28878014 422.3649478 577.25091387 428.86894969 577.20890081 435.37295401 C576.99999778 467.96467358 577.22528334 500.52537215 577.87331772 533.11080647 C579.14859145 598.94153065 577.7668244 665.31691467 572.23669434 730.92993164 C572.06131425 733.01666525 571.89043062 735.10371813 571.72070312 737.19091797 C566.17321268 804.13632578 555.17427224 872.30320492 533.15380859 935.92578125 C531.97410596 939.35617044 530.82221344 942.79517244 529.67285156 946.23583984 C516.41992083 985.6650092 499.08434955 1023.6738898 477.70800781 1059.36474609 C476.19851531 1061.88531376 474.70207455 1064.41314446 473.20800781 1066.94287109 C462.73092884 1084.53771771 450.67056394 1101.02220627 438.05175781 1117.13037109 C437.32472656 1118.06107422 436.59769531 1118.99177734 435.84863281 1119.95068359 C430.88937701 1126.22031187 425.71994589 1132.31240577 420.53125 1138.39208984 C419.01387918 1140.17487536 417.50502392 1141.96461626 415.99707031 1143.75537109 C410.97119074 1149.70150463 405.92303884 1155.49070576 400.28222656 1160.87255859 C398.36698374 1162.81128075 396.59520513 1164.79042916 394.81738281 1166.85302734 C390.93548496 1171.32563751 386.81188511 1175.51791325 382.61425781 1179.69287109 C381.90205078 1180.40894531 381.18984375 1181.12501953 380.45605469 1181.86279297 C376.42670552 1185.8848227 372.29965912 1189.72338439 367.98754883 1193.43969727 C364.82074606 1196.20550748 361.79054904 1199.11358471 358.73925781 1202.00537109 C353.57591094 1206.86065919 348.32198367 1211.50425634 342.78222656 1215.93115234 C340.27524827 1217.95036376 337.82010423 1220.01516243 335.37426758 1222.10717773 C269.56300571 1278.38627236 192.79726267 1321.80913069 58.40734863 1386.10583496 C55.95071999 1387.17431629 53.49486191 1388.24455567 51.0390625 1389.31494141 C46.00379115 1391.50841489 40.96612236 1393.69631877 35.92675781 1395.88037109 C35.14494141 1396.21925354 34.363125 1396.55813599 33.55761719 1396.9072876 C29.95378329 1398.46763076 26.34697712 1400.01954179 22.73046875 1401.55029297 C20.48951715 1402.50079168 18.29862142 1403.48962438 16.09960938 1404.53857422 C11.24068483 1406.77655638 7.92793453 1407.69303254 2.73681641 1406.13671875 C-3.79252573 1403.68955124 -10.22033015 1401.04660217 -16.63574219 1398.31787109 C-18.24859566 1397.63774796 -19.86163557 1396.95806676 -21.47485352 1396.27880859 C-26.30448971 1394.24141432 -31.12693281 1392.18737536 -35.94824219 1390.13037109 C-37.30760253 1389.55172339 -38.66697673 1388.97310823 -40.02636719 1388.39453125 C-88.04857406 1367.92796759 -135.50084079 1345.88319624 -180.81884766 1319.91796875 C-183.59194538 1318.33389779 -186.37020574 1316.75935967 -189.15156555 1315.18984985 C-191.57679638 1313.82069799 -193.9996746 1312.44741384 -196.42227173 1311.0736084 C-198.11062931 1310.11748653 -199.8012269 1309.16532333 -201.49194336 1308.21337891 C-217.45452528 1299.13394109 -232.78776769 1289.02292197 -248.05541992 1278.83081055 C-250.51102885 1277.19267986 -252.97070472 1275.56078746 -255.43066406 1273.92919922 C-277.51741378 1259.2340825 -298.69648536 1243.40774536 -319.19238281 1226.5703125 C-320.75759811 1225.28671408 -322.32905919 1224.01074038 -323.90136719 1222.73583984 C-342.70000931 1207.48255567 -360.20826429 1191.05006048 -377.29711914 1173.91186523 C-379.53709405 1171.66645529 -381.78246915 1169.4265427 -384.02832031 1167.18701172 C-385.48241761 1165.73225463 -386.93620521 1164.27718791 -388.38964844 1162.82177734 C-389.04703506 1162.16641495 -389.70442169 1161.51105255 -390.38172913 1160.83583069 C-394.76778486 1156.42777844 -398.8989027 1151.84824582 -402.94824219 1147.13037109 C-403.92150677 1146.01257917 -404.89534784 1144.89528854 -405.87011719 1143.77880859 C-412.82143862 1135.75441557 -419.49471352 1127.55955307 -425.94824219 1119.13037109 C-426.52477539 1118.37981445 -427.10130859 1117.62925781 -427.6953125 1116.85595703 C-436.59002097 1105.24459195 -445.05556475 1093.44544526 -452.94824219 1081.13037109 C-453.45000977 1080.35209961 -453.95177734 1079.57382813 -454.46875 1078.77197266 C-482.72799829 1034.73597957 -503.44175969 987.60194552 -520.24575806 938.1895752 C-520.97025463 936.06584564 -521.7038491 933.94537405 -522.43725586 931.82470703 C-526.24709441 920.71472326 -529.4382011 909.49710775 -532.38574219 898.13037109 C-532.6215802 897.22739288 -532.85741821 896.32441467 -533.10040283 895.39407349 C-537.13716152 879.89367427 -540.66702431 864.33507164 -543.68540955 848.60453796 C-544.45451164 844.60081394 -545.26451119 840.6084599 -546.10888672 836.61987305 C-549.26393393 821.57261895 -551.60452184 806.50259203 -553.57861328 791.25756836 C-554.07078368 787.46183166 -554.57685664 783.66814484 -555.08496094 779.87451172 C-557.40997058 762.3257396 -559.31909127 744.75669722 -560.94824219 727.13037109 C-561.0301178 726.24475494 -561.11199341 725.35913879 -561.1963501 724.44668579 C-562.35591008 711.69234049 -563.17520269 698.91315693 -563.94824219 686.13037109 C-564.01718689 685.00270325 -564.08613159 683.8750354 -564.15716553 682.7131958 C-569.05900497 601.44145131 -567.68655246 519.79283869 -565.59814453 438.44161987 C-565.40112622 430.7608588 -565.20706533 423.08002429 -565.01463318 415.39914703 C-564.97058901 413.64525059 -564.92633048 411.89135952 -564.8818512 410.13747406 C-563.68194455 362.80909628 -563.30728595 315.47138611 -562.94824219 268.13037109 C-556.7770796 265.28650153 -550.60701515 262.51810733 -544.28417969 260.02880859 C-543.24386093 259.61813896 -543.24386093 259.61813896 -542.18252563 259.19917297 C-539.8972771 258.29820963 -537.61032752 257.40166049 -535.32324219 256.50537109 C-533.6643455 255.85289129 -532.00549261 255.20030013 -530.34667969 254.54760742 C-514.82045479 248.44590517 -499.26265858 242.42535382 -483.70654297 236.40039062 C-396.10555289 202.5044798 -396.10555289 202.5044798 -309.94824219 165.13037109 C-308.86945801 164.63907715 -307.79067383 164.1477832 -306.67919922 163.64160156 C-270.04581195 146.95812128 -233.74682996 129.40516072 -198.94824219 109.13037109 C-197.58747559 108.34267334 -197.58747559 108.34267334 -196.19921875 107.5390625 C-164.66555688 89.26374597 -133.94743341 69.24692021 -105.51806641 46.39160156 C-103.99052963 45.16434573 -102.45580664 43.94605127 -100.92089844 42.72802734 C-90.70875218 34.53309516 -82.9099599 25.70426973 -75.09667969 15.25146484 C-65.64724202 2.7352072 -65.64724202 2.7352072 -60.31396484 1.54003906 C-40.42646757 -0.88062106 -20.00158413 -0.02542638 0 0 Z M-1.01464844 141.56005859 C-2.19081259 142.69743328 -3.35554129 143.84671057 -4.51074219 145.00537109 C-5.77273386 146.22393588 -7.03707557 147.4400714 -8.30371094 148.65380859 C-9.23642822 149.55244629 -9.23642822 149.55244629 -10.18798828 150.46923828 C-14.22569532 154.27957929 -18.61542179 157.66641641 -22.94824219 161.13037109 C-24.12805204 162.09999464 -25.30634302 163.0714682 -26.48339844 164.04443359 C-60.95290342 192.46496028 -98.34082674 217.17191094 -137.02294922 239.44287109 C-139.75209812 241.01722239 -142.47406579 242.60324395 -145.19433594 244.19287109 C-162.98109041 254.53643198 -181.29552197 263.9202696 -199.73730469 273.03662109 C-203.01525583 274.65870001 -206.27589351 276.31290612 -209.53417969 277.97412109 C-226.40048434 286.54206044 -243.51777404 294.43650604 -260.78222656 302.15966797 C-262.93536118 303.12459845 -265.08664898 304.09352311 -267.23730469 305.06396484 C-302.19657102 320.83687178 -337.63491493 335.4392506 -373.16186523 349.87939453 C-388.7846959 356.2308185 -404.37092895 362.66828127 -419.94824219 369.13037109 C-421.81185088 432.64736867 -423.27100946 496.15106928 -423.31673408 559.69794178 C-423.32049853 564.56137015 -423.33163166 569.42473944 -423.34594727 574.28814697 C-423.42692499 603.91401804 -422.98211666 633.459501 -421.54589844 663.04833984 C-421.45172449 664.99446324 -421.45172449 664.99446324 -421.35564804 666.97990227 C-420.23398543 689.64661613 -418.55243915 712.2416619 -416.18920898 734.81256104 C-415.96147817 737.00305691 -415.74155992 739.19417511 -415.52441406 741.38574219 C-413.66932509 759.93243649 -410.7087039 778.26281249 -407.57324219 796.63037109 C-407.39032623 797.71295197 -407.20741028 798.79553284 -407.01895142 799.91091919 C-404.31276048 815.82879083 -400.88082699 831.4727442 -396.94824219 847.13037109 C-396.60274082 848.53411202 -396.25805802 849.93805492 -395.91455078 851.34228516 C-379.75548478 916.71345956 -350.59524687 978.0826032 -308.94824219 1031.13037109 C-307.89830078 1032.48001953 -307.89830078 1032.48001953 -306.82714844 1033.85693359 C-298.80337452 1044.02791461 -290.35383767 1053.81863766 -281.54589844 1063.31396484 C-279.24705035 1065.80640014 -277.00027839 1068.3348641 -274.76074219 1070.88037109 C-270.61072563 1075.50232094 -266.26862218 1079.91834917 -261.88574219 1084.31787109 C-261.22485596 1084.98334961 -260.56396973 1085.64882812 -259.88305664 1086.33447266 C-255.98579696 1090.21965755 -251.97809422 1093.91631294 -247.81225586 1097.51147461 C-245.19600044 1099.7836933 -242.67140113 1102.14348458 -240.13574219 1104.50537109 C-235.54264843 1108.74347811 -230.83553997 1112.78637302 -225.96386719 1116.70458984 C-223.75182003 1118.48396974 -221.55617379 1120.27667662 -219.37011719 1122.08740234 C-198.38438923 1139.41499441 -176.05483525 1155.19808496 -153.08007812 1169.77392578 C-150.90731135 1171.15641458 -148.74381555 1172.55260291 -146.58105469 1173.95068359 C-126.15220201 1187.08982889 -104.92826491 1198.85415511 -83.48681641 1210.24560547 C-80.35224657 1211.91253416 -77.22519011 1213.59317213 -74.09927368 1215.27626038 C-42.76894865 1233.36819631 -42.76894865 1233.36819631 -8.94824219 1245.13037109 C-8.15160156 1245.31857422 -7.35496094 1245.50677734 -6.53417969 1245.70068359 C-3.27149991 1246.24282072 -0.13054475 1246.3006096 3.17675781 1246.31787109 C5.0059375 1246.33914063 5.0059375 1246.33914063 6.87207031 1246.36083984 C15.98176221 1246.06549922 24.34476981 1243.65666624 32.73925781 1240.25537109 C34.29543823 1239.62864502 34.29543823 1239.62864502 35.88305664 1238.98925781 C60.07178422 1228.93235772 83.53667522 1216.45305526 106.359375 1203.63476562 C109.41646337 1201.92658839 112.4872911 1200.2446613 115.55957031 1198.56396484 C136.32431585 1187.17689388 156.40789636 1175.00385403 176.11425781 1161.88037109 C176.80545715 1161.42032684 177.49665649 1160.96028259 178.20880127 1160.48629761 C200.84049853 1145.39568983 222.73039105 1129.28337294 243.37792969 1111.56152344 C245.1320263 1110.06174013 246.89571953 1108.57384256 248.66113281 1107.08740234 C254.7005741 1101.9848094 260.52071434 1096.818352 266.04003906 1091.14599609 C267.99518118 1089.18705759 270.01515963 1087.37057823 272.11425781 1085.56787109 C278.23129367 1080.30042355 283.75726274 1074.57002289 289.01269531 1068.45068359 C291.08699122 1066.09027791 293.21584904 1063.79149669 295.36083984 1061.49560547 C301.19807279 1055.24155732 306.73528121 1048.83783596 312.05175781 1042.13037109 C313.03981359 1040.91924962 314.02811152 1039.70832566 315.01660156 1038.49755859 C331.36259382 1018.2287236 345.7423016 996.05923787 358.05175781 973.13037109 C358.54579102 972.21771484 359.03982422 971.30505859 359.54882812 970.36474609 C378.82149986 934.6266949 394.25574082 896.3441057 404.32666016 856.95166016 C405.05359564 854.12322026 405.80032116 851.30030523 406.54760742 848.47718811 C421.74482147 790.84034977 428.8020338 731.55427207 432.52832031 672.14990234 C432.59190042 671.14306334 432.65548054 670.13622433 432.72098732 669.09887505 C434.12259394 646.80698146 435.29920132 624.50892805 436.23925781 602.19287109 C436.28230293 601.18079338 436.32534805 600.16871567 436.36969757 599.12596893 C437.93692577 561.9914859 438.43443694 524.87841718 438.42737198 487.71641159 C438.42676394 483.79491558 438.42928988 479.87342976 438.43197632 475.95193481 C438.53008268 438.79990579 438.53008268 438.79990579 436.29675293 401.73474121 C436.07063182 399.33100737 435.87222049 396.9272374 435.6875 394.52001953 C435.41324483 391.07162618 435.09013881 387.63412012 434.73925781 384.19287109 C434.64708984 383.08621094 434.55492187 381.97955078 434.45996094 380.83935547 C433.78541434 374.30295949 433.07243064 370.5243207 428.05175781 366.13037109 C425.61601662 364.629079 423.3732072 363.38528088 420.80175781 362.19287109 C419.74903687 361.68820312 419.74903687 361.68820312 418.67504883 361.17333984 C405.84339664 355.10606824 392.67533901 350.22804071 379.26269531 345.61865234 C328.20613758 328.04704647 328.20613758 328.04704647 304.05175781 317.13037109 C303.40023743 316.83664612 302.74871704 316.54292114 302.07745361 316.24029541 C290.36229517 310.95618429 278.69720846 305.56616306 267.05175781 300.13037109 C265.85694794 299.57292206 265.85694794 299.57292206 264.63800049 299.00421143 C234.56798012 284.96502609 204.58458929 270.69467753 175.58642578 254.53222656 C172.99299893 253.09787316 170.3864249 251.69072622 167.77441406 250.29052734 C124.2567805 226.92535496 82.31251365 200.10919998 43.05175781 170.13037109 C41.88770501 169.24624374 40.72364276 168.36212883 39.55957031 167.47802734 C31.3980785 161.2593525 23.36703254 154.88659897 15.61816406 148.15771484 C15.03550781 147.6548999 14.45285156 147.15208496 13.85253906 146.6340332 C12.71820662 145.65280378 11.58902415 144.66557976 10.46582031 143.67163086 C4.97282388 138.76583694 4.97282388 138.76583694 -1.01464844 141.56005859 Z " fill="#FCFCFD" transform="translate(1083.9482421875,385.86962890625)"/>
<path d="M0 0 C47.19 0 94.38 0 143 0 C143 25.41 143 50.82 143 77 C182.27 77 221.54 77 262 77 C262 124.19 262 171.38 262 220 C235.55810547 220.02126953 235.55810547 220.02126953 208.58203125 220.04296875 C197.43943834 220.06301665 186.29687149 220.08432012 175.15429688 220.11132812 C169.30265385 220.1254628 163.45101021 220.13928584 157.59936523 220.15258789 C156.86594491 220.15426808 156.13252458 220.15594827 155.37687939 220.15767938 C143.53239212 220.18435941 131.68795326 220.19344209 119.84343902 220.19604143 C107.69006376 220.1990996 95.53682852 220.22103046 83.38351649 220.26052457 C75.88266181 220.28430364 68.38208653 220.2933166 60.88119932 220.28351311 C55.13195938 220.27757486 49.38304478 220.29787935 43.63389206 220.32806015 C41.27361022 220.33632108 38.91328084 220.33601107 36.55300331 220.32659721 C33.33557093 220.31503256 30.11972838 220.33400765 26.90242004 220.36076355 C25.49434286 220.34475366 25.49434286 220.34475366 24.05781966 220.32842034 C19.52553163 220.39896549 17.63067769 220.4962428 13.98485851 223.40836048 C13.3298552 224.26360152 12.67485189 225.11884256 12 226 C11.45214844 226.69480469 10.90429688 227.38960937 10.33984375 228.10546875 C3.09703258 238.85872321 -0.03082142 249.03256534 1 262 C2.67234923 269.71197987 6.43351541 274.71004926 13 279 C24.51085395 285.5805778 39.62155724 285.28642703 52.52267647 285.30496025 C54.65395416 285.3087494 56.784815 285.32580593 58.91600037 285.34571838 C64.96401966 285.39991201 71.01209965 285.43127224 77.06030273 285.45629883 C132.81474448 285.70965744 132.81474448 285.70965744 156 293 C156.88059082 293.27473145 157.76118164 293.54946289 158.66845703 293.83251953 C171.36692803 297.86992724 183.29205719 302.65264148 195 309 C195.96679688 309.48984375 196.93359375 309.9796875 197.9296875 310.484375 C237.02843627 330.65706277 265.63935588 368.90993887 278.98413086 410.27563477 C293.59465609 457.37315225 288.87263117 508.2109713 266.48046875 552.03125 C258.90791518 566.31377432 249.77423669 578.83624951 238.52783203 590.42529297 C237.01657879 591.98291256 235.52198676 593.55536424 234.02734375 595.12890625 C211.86561598 618.17929736 183.17355219 633.61668106 151.85058594 639.5690918 C146.63884688 640.51850136 146.63884688 640.51850136 143 644 C142.56680979 647.29292279 142.56680979 647.29292279 142.671875 651.09765625 C142.67338562 651.79954071 142.67489624 652.50142517 142.67645264 653.22457886 C142.68581405 655.5042718 142.71733441 657.7830317 142.75 660.0625 C142.76189058 661.6289816 142.77295703 663.19546967 142.78320312 664.76196289 C142.85438948 673.17365269 143.06035255 681.56184073 143.63916016 689.95556641 C144.01149829 695.45127724 144.11257491 700.92956024 144.125 706.4375 C144.13176758 707.65651001 144.13176758 707.65651001 144.13867188 708.90014648 C144.13023286 712.18890267 144.04711495 714.85865514 143 718 C95.81 718 48.62 718 0 718 C0 694.57 0 671.14 0 647 C-39.27 647 -78.54 647 -119 647 C-119 599.81 -119 552.62 -119 504 C-101.7678125 503.98582031 -84.535625 503.97164062 -66.78125 503.95703125 C-55.88019325 503.93698021 -44.97916307 503.91567336 -34.078125 503.88867188 C-28.35221441 503.87453779 -22.62630321 503.86071482 -16.90039062 503.84741211 C-16.18275622 503.84573192 -15.46512181 503.84405173 -14.72574091 503.84232062 C-3.1451281 503.81566051 8.4354352 503.80655933 20.01607555 503.80395857 C31.90391379 503.80089744 43.79160911 503.77893233 55.6793828 503.73947543 C62.35535013 503.71785796 69.03113318 503.70555011 75.70713806 503.71384621 C81.99121587 503.72137979 88.27480404 503.70559059 94.55879211 503.67193985 C96.86459917 503.6636984 99.17045485 503.66396618 101.47625732 503.67340279 C104.6269603 503.68502023 107.77605746 503.66591143 110.92663574 503.63923645 C111.8371606 503.64990971 112.74768546 503.66058297 113.68580198 503.67157966 C119.98245364 503.57225566 124.08431889 501.95405576 129 498 C138.61470523 487.62160128 142.48557514 473.22826145 142.25 459.4765625 C141.70072859 451.83825689 139.92057591 445.18050393 134 440 C130.41462256 438.36502583 126.76887927 437.1376648 123 436 C122.01 435.67 121.02 435.34 120 435 C110.80984415 433.75670756 101.50533268 433.82750227 92.24997902 433.77020454 C89.64410147 433.75350292 87.03835184 433.73025922 84.43254089 433.70530701 C77.03183613 433.63532973 69.63108046 433.57475032 62.23022461 433.52319336 C57.67752084 433.49102223 53.12497052 433.44966537 48.57239342 433.40299797 C46.85879001 433.38721291 45.14515162 433.37478648 43.43149757 433.36609077 C27.19391856 433.28250149 11.7114523 431.85340859 -4.0625 427.75 C-5.27349365 427.4391748 -6.4844873 427.12834961 -7.73217773 426.80810547 C-16.76788959 424.43548171 -25.44168358 421.75903953 -34 418 C-34.73444336 417.68337402 -35.46888672 417.36674805 -36.22558594 417.04052734 C-48.24714736 411.80067837 -59.29536874 405.57058593 -70 398 C-70.59586914 397.58057129 -71.19173828 397.16114258 -71.80566406 396.72900391 C-109.73844485 369.5776811 -134.35066067 327.34816396 -142.2734375 281.734375 C-142.52287166 280.15737915 -142.76542779 278.57927489 -143 277 C-143.15251221 275.98558838 -143.15251221 275.98558838 -143.30810547 274.95068359 C-147.06088375 246.21105245 -143.80848807 215.88127557 -133 189 C-132.68047363 188.20045898 -132.36094727 187.40091797 -132.03173828 186.57714844 C-123.5306614 165.71417306 -111.28832515 148.46225011 -96 132 C-95.13375 131.03513672 -95.13375 131.03513672 -94.25 130.05078125 C-71.9814121 106.34069993 -36.0632709 88.22639494 -4 83 C-2.68 83 -1.36 83 0 83 C0 55.61 0 28.22 0 0 Z " fill="#FCFCFD" transform="translate(1024,720)"/>
</svg>
