<?xml version="1.0" encoding="UTF-8"?>
<svg version="1.1" xmlns="http://www.w3.org/2000/svg" width="400" height="400">
<path d="M0 0 C132 0 264 0 400 0 C400 132 400 264 400 400 C268 400 136 400 0 400 C0 268 0 136 0 0 Z " fill="#2A0F77" transform="translate(0,0)"/>
<path d="M0 0 C4.12590768 0.62809343 7.39476292 2.00034444 11.12890625 3.84375 C11.71142151 4.12874359 12.29393677 4.41373718 12.894104 4.70736694 C14.14001623 5.31731513 15.38472759 5.92972142 16.62832642 6.54437256 C19.89709951 8.15939269 23.1749368 9.75576016 26.453125 11.3515625 C27.10372391 11.66860138 27.75432281 11.98564026 28.42463684 12.31228638 C33.83963462 14.94217288 39.30647227 17.44133574 44.8125 19.875 C51.42391914 22.80176237 57.9320697 25.87236407 64.36450195 29.17529297 C68.74407093 31.41628454 73.19411528 33.46054801 77.6784668 35.48291016 C81.67950131 37.31035804 85.65710116 39.18463729 89.6328125 41.06640625 C90.40118942 41.43001251 91.16956635 41.79361877 91.96122742 42.16824341 C95.15612883 43.68101513 98.3503628 45.19519221 101.54443359 46.7097168 C103.90680534 47.82950499 106.26978634 48.94799986 108.6328125 50.06640625 C109.69255783 50.569692 109.69255783 50.569692 110.77371216 51.08314514 C115.81466478 53.46835558 120.89543597 55.75432858 126 58 C125.43330837 62.58719703 124.19657267 66.12429321 122.15625 70.26171875 C121.87125641 70.84609711 121.58626282 71.43047546 121.29263306 72.03256226 C120.36948461 73.92145254 119.43549975 75.80469995 118.5 77.6875 C117.21363287 80.29303683 115.93064032 82.90022429 114.6484375 85.5078125 C114.33139862 86.15059647 114.01435974 86.79338043 113.68771362 87.4556427 C111.81809442 91.26487254 110.0421952 95.09905465 108.3515625 98.9921875 C107.96806641 99.86141846 107.58457031 100.73064941 107.18945312 101.6262207 C106.50333559 103.19658008 105.836374 104.77551815 105.19335938 106.36401367 C103.20636483 110.84252931 101.25063888 113.09246355 96.5690918 115.0793457 C92.09340348 116.68324389 87.59123934 118.19795576 83.06787109 119.66113281 C79.01990552 120.97855475 75.01724395 122.40517259 71.01953125 123.8671875 C70.35332764 124.11062393 69.68712402 124.35406036 69.00073242 124.60487366 C67.63625347 125.10446385 66.27201789 125.60471919 64.90802002 126.10562134 C61.2985656 127.43084715 57.68651617 128.74895294 54.07421875 130.06640625 C53.36869873 130.3237706 52.66317871 130.58113495 51.9362793 130.84629822 C45.5678218 133.16531459 39.17454484 135.40903854 32.77075195 137.62841797 C27.3227747 139.52190458 21.90696638 141.4925835 16.5 143.5 C8.33625935 146.53050513 0.13197995 149.43157546 -8.09375 152.2890625 C-11.39112089 153.4350039 -14.68218071 154.59687689 -17.96875 155.7734375 C-18.75362793 156.05372803 -19.53850586 156.33401855 -20.34716797 156.62280273 C-21.83145906 157.15367941 -23.31490416 157.68692927 -24.79736328 158.22290039 C-29.77763762 160 -29.77763762 160 -32 160 C-32 160.66 -32 161.32 -32 162 C-31.22398437 162.23460937 -30.44796875 162.46921875 -29.6484375 162.7109375 C-24.84139367 164.4093577 -20.25782666 166.50289993 -15.625 168.625 C-14.65054932 169.0694043 -13.67609863 169.51380859 -12.67211914 169.97167969 C-6.2052347 172.93931952 0.1842967 176.03157275 6.53076172 179.24731445 C12.61513863 182.32837575 18.79049119 185.18252083 25 188 C48.52354126 198.67750616 48.52354126 198.67750616 58.53759766 203.78710938 C65.50970457 207.31339684 72.60110369 210.58674065 79.6875 213.875 C80.30967407 214.16421326 80.93184814 214.45342651 81.57287598 214.75140381 C89.71148523 218.54876426 89.71148523 218.54876426 98 222 C95.67343976 229.71438395 92.37390557 236.72141032 88.8125 243.9375 C83.64258102 254.53095663 78.68068087 265.18211219 74 276 C69.70813539 275.36617398 66.31254218 273.85418897 62.43359375 271.9375 C61.49309677 271.47664757 61.49309677 271.47664757 60.53359985 271.00648499 C59.19343747 270.34941287 57.85447822 269.68988209 56.51663208 269.02810669 C53.01467655 267.29643031 49.50365623 265.58337822 45.9921875 263.87109375 C45.29897903 263.53275009 44.60577057 263.19440643 43.89155579 262.84580994 C38.330292 260.14023082 32.71994048 257.56105595 27.0625 255.0625 C20.68403122 252.24166544 14.43072458 249.25668931 8.21728516 246.09033203 C2.52823004 243.21384349 -3.25365248 240.5623628 -9.0625 237.9375 C-10.00891357 237.50961182 -10.95532715 237.08172363 -11.93041992 236.64086914 C-14.61986861 235.42633214 -17.30989893 234.21309115 -20 233 C-28.42866233 229.19766832 -36.65627842 225.1638027 -44.8125 220.8125 C-50.22300706 217.92629571 -55.53476593 215.22661438 -61.2890625 213.0859375 C-65.88489651 211.244955 -70.31434312 209.04876869 -74.77856445 206.91210938 C-81.61086417 203.64633957 -88.47722434 200.45856309 -95.35272217 197.28485107 C-105.9979978 192.3685688 -116.55691133 187.33290428 -127 182 C-129.66454911 180.66238686 -132.33214454 179.33101522 -135 178 C-133.65751487 173.70114839 -132.00836979 169.74364074 -130.0234375 165.703125 C-129.59430809 164.82245613 -129.59430809 164.82245613 -129.1565094 163.92399597 C-127.91559355 161.37855498 -126.66520724 158.83785192 -125.41165161 156.2986145 C-120.76078509 146.90851523 -120.76078509 146.90851523 -116.75390625 137.23046875 C-112.52780276 125.94207677 -112.52780276 125.94207677 -108.0859375 123.203125 C-104.72986307 122.16186086 -101.46241502 121.58165428 -98 121 C-95.7304296 120.19928101 -93.47910997 119.34478686 -91.25 118.4375 C-86.99395803 116.73842565 -82.71583257 115.21617255 -78.36523438 113.78344727 C-74.43678179 112.48220817 -70.53111703 111.11657384 -66.625 109.75 C-65.76430908 109.44916504 -64.90361816 109.14833008 -64.0168457 108.83837891 C-57.25464069 106.46405248 -50.53169608 103.99205848 -43.81518555 101.49194336 C-37.78495295 99.25910873 -31.71232091 97.20290344 -25.58984375 95.23828125 C-22.76979637 94.26553368 -20.03430203 93.2235477 -17.2734375 92.1015625 C-11.80979458 89.8895843 -6.26463552 87.96627197 -0.6875 86.0625 C7.61184645 83.2054902 15.84693675 80.25496575 24 77 C12.1759805 70.58280697 0.21663186 64.69750378 -12.07421875 59.2265625 C-16.45009619 57.27321304 -20.73109448 55.17669455 -25 53 C-23.33598592 47.4011902 -20.85286431 42.30117383 -18.3125 37.0625 C-17.40697513 35.18126719 -16.50203035 33.29975505 -15.59765625 31.41796875 C-15.15437988 30.49677246 -14.71110352 29.57557617 -14.25439453 28.62646484 C-12.5505105 25.05885402 -10.90038015 21.46756115 -9.25 17.875 C-6.41607599 11.76961027 -3.32198785 5.85302621 0 0 Z " fill="#FDFDFD" transform="translate(184,72)"/>
<path d="M0 0 C0.99 0 1.98 0 3 0 C2.67 1.32 2.34 2.64 2 4 C3.32 4 4.64 4 6 4 C6.33 3.34 6.66 2.68 7 2 C8.65 2 10.3 2 12 2 C11.67 2.99 11.34 3.98 11 5 C8.41274822 6.18730047 5.9257881 7.18753199 3.25 8.125 C2.53328125 8.38925781 1.8165625 8.65351563 1.078125 8.92578125 C-2.58654055 10.25287521 -6.13820214 11.37663893 -10 12 C-9.67 11.01 -9.34 10.02 -9 9 C-7.35 9 -5.7 9 -4 9 C-4 8.01 -4 7.02 -4 6 C-5.32 5.67 -6.64 5.34 -8 5 C-7.05125 4.54625 -6.1025 4.0925 -5.125 3.625 C-1.99686321 2.19761746 -1.99686321 2.19761746 0 0 Z " fill="#331C75" transform="translate(189,148)"/>
<path d="M0 0 C1.98 0.66 3.96 1.32 6 2 C4.25192871 7.46737191 2.34205919 12.75824848 0 18 C-2.29633824 14.55549263 -2.54016485 12.06187717 -3 8 C-2.34 8 -1.68 8 -1 8 C-1.99 6.68 -2.98 5.36 -4 4 C-3.34 4 -2.68 4 -2 4 C-1.34 2.68 -0.68 1.36 0 0 Z " fill="#F3EFF7" transform="translate(276,292)"/>
<path d="M0 0 C0.54938232 0.26216309 1.09876465 0.52432617 1.66479492 0.79443359 C4.17160174 1.98956068 6.67953751 3.18230011 9.1875 4.375 C10.05181641 4.7875 10.91613281 5.2 11.80664062 5.625 C13.06831055 6.22441406 13.06831055 6.22441406 14.35546875 6.8359375 C15.12528076 7.20251465 15.89509277 7.5690918 16.68823242 7.94677734 C19.09754093 9.04443886 21.53479932 10.03527336 24 11 C23.67 11.99 23.34 12.98 23 14 C21.35 14 19.7 14 18 14 C18.66 13.67 19.32 13.34 20 13 C20 12.34 20 11.68 20 11 C18.68 11.33 17.36 11.66 16 12 C15.67 11.01 15.34 10.02 15 9 C13.02 9.66 11.04 10.32 9 11 C8.95875 10.401875 8.9175 9.80375 8.875 9.1875 C7.56974595 5.92436489 5.07310023 5.50519195 2 4 C0.80859375 1.90625 0.80859375 1.90625 0 0 Z " fill="#2F176F" transform="translate(200,321)"/>
<path d="M0 0 C-1.21807138 1.15762119 -2.45001235 2.3006583 -3.6875 3.4375 C-4.71423828 4.39462891 -4.71423828 4.39462891 -5.76171875 5.37109375 C-8.25728664 7.18724001 -9.94536541 7.71865208 -13 8 C-15.3125 7.0625 -15.3125 7.0625 -17 6 C-17 5.34 -17 4.68 -17 4 C-14.92227529 3.13227971 -12.83756823 2.28126381 -10.75 1.4375 C-9.58984375 0.96183594 -8.4296875 0.48617187 -7.234375 -0.00390625 C-4.13733356 -0.95770524 -2.92678299 -1.20983356 0 0 Z " fill="#341F6F" transform="translate(169,228)"/>
<path d="M0 0 C2.64 0.33 5.28 0.66 8 1 C7.67 1.99 7.34 2.98 7 4 C7 4.99 7 5.98 7 7 C6.484375 7.474375 5.96875 7.94875 5.4375 8.4375 C4.7259375 9.2109375 4.7259375 9.2109375 4 10 C4.22757731 12.16299211 4.22757731 12.16299211 5 14 C4.01 14 3.02 14 2 14 C1.19032562 11.08517222 0.78154007 9.53886783 1.9375 6.6875 C2.288125 6.130625 2.63875 5.57375 3 5 C1.35 4.67 -0.3 4.34 -2 4 C-1.34 2.68 -0.68 1.36 0 0 Z " fill="#331B78" transform="translate(279,289)"/>
<path d="M0 0 C2.75 0.35546875 2.75 0.35546875 6 1.1875 C7.0725 1.44917969 8.145 1.71085937 9.25 1.98046875 C12 3 12 3 14 6 C14.66 5.67 15.32 5.34 16 5 C16 6.32 16 7.64 16 9 C16.99 9 17.98 9 19 9 C19 9.66 19 10.32 19 11 C11.55620912 8.76686274 4.88023305 5.59727921 -2 2 C-1.34 1.34 -0.68 0.68 0 0 Z " fill="#32206D" transform="translate(224,265)"/>
<path d="M0 0 C1.77245666 2.99437754 2.27743741 4.7172327 1.5 8.125 C0.9140625 10.2265625 0.9140625 10.2265625 0 12 C-3.125 13.5 -3.125 13.5 -6 14 C-4.50829734 9.0276578 -2.39542583 4.58154261 0 0 Z " fill="#EEE8F4" transform="translate(182,75)"/>
<path d="M0 0 C0 0.66 0 1.32 0 2 C-0.66 2 -1.32 2 -2 2 C-2 2.66 -2 3.32 -2 4 C-8.68572695 5.98697306 -15.04339229 7.42978625 -22 8 C-19.53693303 6.35795535 -17.78171367 5.45155224 -15.05859375 4.4921875 C-14.31029297 4.22792969 -13.56199219 3.96367187 -12.79101562 3.69140625 C-12.01435547 3.42199219 -11.23769531 3.15257812 -10.4375 2.875 C-9.65697266 2.59785156 -8.87644531 2.32070312 -8.07226562 2.03515625 C-2.26254618 0 -2.26254618 0 0 0 Z " fill="#36246F" transform="translate(204,214)"/>
<path d="M0 0 C1.96602468 2.94903702 2.73897585 4.51967799 3 8 C1.5625 9.8125 1.5625 9.8125 0 11 C-0.66 10.67 -1.32 10.34 -2 10 C-2.33 10.99 -2.66 11.98 -3 13 C-3.66 13 -4.32 13 -5 13 C-3.58192622 8.52761347 -1.88695626 4.28853694 0 0 Z " fill="#37217B" transform="translate(309,133)"/>
<path d="M0 0 C0.33 0 0.66 0 1 0 C1.59652486 4.62306768 -0.11508966 7.78960672 -2.125 11.81640625 C-3.24797547 14.22676778 -3.24797547 14.22676778 -3 18 C-4.32 17.67 -5.64 17.34 -7 17 C-5.24009216 11.08030998 -2.60305395 5.58365008 0 0 Z " fill="#3E2C7A" transform="translate(265,330)"/>
<path d="M0 0 C0.33 0.99 0.66 1.98 1 3 C1.66 3.33 2.32 3.66 3 4 C2.54625 4.4125 2.0925 4.825 1.625 5.25 C-0.05950374 7.06408095 -0.99265971 8.75285627 -2 11 C-2.66 11 -3.32 11 -4 11 C-3.67 11.99 -3.34 12.98 -3 14 C-3.99 14 -4.98 14 -6 14 C-4.50829734 9.0276578 -2.39542583 4.58154261 0 0 Z " fill="#ECE4F5" transform="translate(68,209)"/>
<path d="M0 0 C0.33 0 0.66 0 1 0 C1 2.31 1 4.62 1 7 C0.01 7.33 -0.98 7.66 -2 8 C-2.67156616 9.93618425 -2.67156616 9.93618425 -3 12 C-3.33 12.66 -3.66 13.32 -4 14 C-4.66 14 -5.32 14 -6 14 C-4.50829734 9.0276578 -2.39542583 4.58154261 0 0 Z " fill="#372570" transform="translate(275,310)"/>
<path d="M0 0 C1.32 0 2.64 0 4 0 C4 0.66 4 1.32 4 2 C6.64 2 9.28 2 12 2 C12.33 1.34 12.66 0.68 13 0 C13.33 1.32 13.66 2.64 14 4 C13.01 4 12.02 4 11 4 C10.67 4.66 10.34 5.32 10 6 C6.7 4.35 3.4 2.7 0 1 C0 0.67 0 0.34 0 0 Z " fill="#362271" transform="translate(226,90)"/>
<path d="M0 0 C3.46877176 0 5.82254537 0.61849799 9 2 C9.33 3.32 9.66 4.64 10 6 C6.7 5.34 3.4 4.68 0 4 C0 2.68 0 1.36 0 0 Z " fill="#2C176D" transform="translate(165,129)"/>
<path d="M0 0 C0 0.99 0 1.98 0 3 C-1.98 3.66 -3.96 4.32 -6 5 C-6.33 4.01 -6.66 3.02 -7 2 C-9.01508358 1.26676204 -9.01508358 1.26676204 -11 1 C-6.87831311 -0.62950412 -4.29299643 -1.26264601 0 0 Z " fill="#341D7B" transform="translate(246,201)"/>
<path d="M0 0 C0.33 0.66 0.66 1.32 1 2 C1.66 2 2.32 2 3 2 C2.6875 3.875 2.6875 3.875 2 6 C1.01 6.66 0.02 7.32 -1 8 C-0.67 8.99 -0.34 9.98 0 11 C-1.32 10.67 -2.64 10.34 -4 10 C-2.8905928 6.51329166 -1.73662334 3.22515763 0 0 Z " fill="#E4DBF1" transform="translate(163,115)"/>
<path d="M0 0 C2.4375 0.8125 2.4375 0.8125 5 2 C5.33 2.99 5.66 3.98 6 5 C3.36 5.66 0.72 6.32 -2 7 C-2 5 -2 5 0 3 C0 2.01 0 1.02 0 0 Z " fill="#F4F1F7" transform="translate(268,184)"/>
<path d="M0 0 C-3.0333779 2.02225194 -5.61344489 2.99347524 -9.0625 4.125 C-10.12597656 4.47820312 -11.18945312 4.83140625 -12.28515625 5.1953125 C-15 6 -15 6 -17 6 C-17 5.34 -17 4.68 -17 4 C-13.38026598 2.68373308 -10.90432869 2 -7 2 C-7 1.34 -7 0.68 -7 0 C-4.3333581 -1.33332095 -2.83319697 -0.67102033 0 0 Z " fill="#34226B" transform="translate(178,160)"/>
<path d="M0 0 C0.61875 0.28875 1.2375 0.5775 1.875 0.875 C2.205 1.865 2.535 2.855 2.875 3.875 C3.535 4.205 4.195 4.535 4.875 4.875 C4.875 5.535 4.875 6.195 4.875 6.875 C1.54166667 5.54166667 -1.79166667 4.20833333 -5.125 2.875 C-2.69803371 -0.15870787 -2.69803371 -0.15870787 0 0 Z " fill="#F2EDF8" transform="translate(108.125,273.125)"/>
<path d="M0 0 C1.1875 1.625 1.1875 1.625 2 4 C0.625 7.25 0.625 7.25 -1 10 C-1.33 10 -1.66 10 -2 10 C-2.33 7.36 -2.66 4.72 -3 2 C-2.01 1.34 -1.02 0.68 0 0 Z " fill="#372272" transform="translate(180,73)"/>
<path d="M0 0 C0.33 0.66 0.66 1.32 1 2 C1.66 2.33 2.32 2.66 3 3 C2.25 5.4375 2.25 5.4375 1 8 C-0.32 8.33 -1.64 8.66 -3 9 C-2.01 6.03 -1.02 3.06 0 0 Z " fill="#ECE6F3" transform="translate(61,223)"/>
<path d="M0 0 C-0.99 1.485 -0.99 1.485 -2 3 C-4.3828125 3.29296875 -4.3828125 3.29296875 -7.125 3.1875 C-8.03507813 3.16042969 -8.94515625 3.13335937 -9.8828125 3.10546875 C-10.58148438 3.07066406 -11.28015625 3.03585938 -12 3 C-7.97869817 0.31913211 -4.73968522 -1.57989507 0 0 Z " fill="#422F7C" transform="translate(227,207)"/>
<path d="M0 0 C1.65 0 3.3 0 5 0 C5 0.66 5 1.32 5 2 C5.94875 2.12375 6.8975 2.2475 7.875 2.375 C11 3 11 3 13 5 C12.34 5.66 11.68 6.32 11 7 C11 6.34 11 5.68 11 5 C9.948125 4.8453125 9.948125 4.8453125 8.875 4.6875 C5.60862353 3.90640997 2.9528148 2.57941257 0 1 C0 0.67 0 0.34 0 0 Z " fill="#443275" transform="translate(299,125)"/>
<path d="M0 0 C1.98 0.66 3.96 1.32 6 2 C5.67 2.99 5.34 3.98 5 5 C2.9375 5.6875 2.9375 5.6875 1 6 C0.01 4.68 -0.98 3.36 -2 2 C-1.34 2 -0.68 2 0 2 C0 1.34 0 0.68 0 0 Z " fill="#331E77" transform="translate(131,289)"/>
<path d="M0 0 C3.36016893 1.12005631 4.69064913 2.37211797 7 5 C7 5.66 7 6.32 7 7 C1.25 5.25 1.25 5.25 -1 3 C-0.67 2.01 -0.34 1.02 0 0 Z " fill="#EAE5F2" transform="translate(121,280)"/>
<path d="M0 0 C2.97 0 5.94 0 9 0 C9.33 0.99 9.66 1.98 10 3 C5.82412255 4.39195915 3.86525224 2.82323219 0 1 C0 0.67 0 0.34 0 0 Z " fill="#3B2777" transform="translate(214,85)"/>
<path d="M0 0 C2.1875 0.3125 2.1875 0.3125 4 1 C3.67 2.32 3.34 3.64 3 5 C1.02 4.34 -0.96 3.68 -3 3 C-1.75 1.4375 -1.75 1.4375 0 0 Z " fill="#F0EDF3" transform="translate(140,289)"/>
<path d="M0 0 C2.97 0.99 5.94 1.98 9 3 C9 3.66 9 4.32 9 5 C5.65626525 4.44271087 2.96687001 3.64826111 0 2 C0 1.34 0 0.68 0 0 Z " fill="#EFE9F7" transform="translate(211,262)"/>
<path d="M0 0 C0.8353125 0.556875 0.8353125 0.556875 1.6875 1.125 C1.3575 2.115 1.0275 3.105 0.6875 4.125 C0.0275 4.125 -0.6325 4.125 -1.3125 4.125 C-1.3125 3.465 -1.3125 2.805 -1.3125 2.125 C-3.2925 2.455 -5.2725 2.785 -7.3125 3.125 C-7.3125 2.465 -7.3125 1.805 -7.3125 1.125 C-2.88173077 -1.09038462 -2.88173077 -1.09038462 0 0 Z " fill="#2E1A69" transform="translate(285.3125,185.875)"/>
<path d="M0 0 C2.9719385 1.12451727 5.33440687 2.22293791 8 4 C5.6875 4.6875 5.6875 4.6875 3 5 C1.1875 3.6875 1.1875 3.6875 0 2 C0 1.34 0 0.68 0 0 Z M1 5 C3 6 3 6 3 6 Z " fill="#362371" transform="translate(161,303)"/>
<path d="M0 0 C1.258125 -0.04125 2.51625 -0.0825 3.8125 -0.125 C4.52019531 -0.14820312 5.22789062 -0.17140625 5.95703125 -0.1953125 C8 0 8 0 11 2 C11 2.66 11 3.32 11 4 C10.06027344 3.7834375 10.06027344 3.7834375 9.1015625 3.5625 C8.28429687 3.376875 7.46703125 3.19125 6.625 3 C5.81289062 2.814375 5.00078125 2.62875 4.1640625 2.4375 C2.04125049 1.93394761 2.04125049 1.93394761 0 2 C0 1.34 0 0.68 0 0 Z " fill="#3D2C72" transform="translate(182,71)"/>
<path d="M0 0 C1.9375 0.3125 1.9375 0.3125 4 1 C4.33 1.99 4.66 2.98 5 4 C2.625 4.625 2.625 4.625 0 5 C-0.66 4.34 -1.32 3.68 -2 3 C-1.34 3 -0.68 3 0 3 C0 2.01 0 1.02 0 0 Z " fill="#2B186D" transform="translate(234,338)"/>
<path d="M0 0 C0 1.66666667 0 3.33333333 0 5 C-2.02045442 4.39816251 -4.02111039 3.72693904 -6 3 C-6.33 2.34 -6.66 1.68 -7 1 C-3.535 0.505 -3.535 0.505 0 0 Z " fill="#3C2878" transform="translate(215,258)"/>
<path d="M0 0 C-5.445 1.485 -5.445 1.485 -11 3 C-11.33 2.01 -11.66 1.02 -12 0 C-4.5 -1.125 -4.5 -1.125 0 0 Z " fill="#392575" transform="translate(117,183)"/>
<path d="M0 0 C0.7425 0.0825 1.485 0.165 2.25 0.25 C1.92 1.24 1.59 2.23 1.25 3.25 C-1.39 3.58 -4.03 3.91 -6.75 4.25 C-3.42692308 0.31153846 -3.42692308 0.31153846 0 0 Z " fill="#2D1965" transform="translate(198.75,149.75)"/>
<path d="M0 0 C0.66 0 1.32 0 2 0 C0.84414715 3.91211733 -0.35534962 6.8745041 -3 10 C-2.67 7.36 -2.34 4.72 -2 2 C-1.34 2 -0.68 2 0 2 C0 1.34 0 0.68 0 0 Z " fill="#E6E0F4" transform="translate(271,314)"/>
<path d="M0 0 C-0.33 0.99 -0.66 1.98 -1 3 C-6.75 1.25 -6.75 1.25 -9 -1 C-5.79937313 -2.60031344 -3.27728194 -1.03173691 0 0 Z " fill="#3D2C74" transform="translate(231,267)"/>
<path d="M0 0 C4.455 1.98 4.455 1.98 9 4 C8.34 4.66 7.68 5.32 7 6 C4.625 5.25 4.625 5.25 2 4 C1.34 2.68 0.68 1.36 0 0 Z " fill="#36246E" transform="translate(200,321)"/>
<path d="M0 0 C-2.97 2.475 -2.97 2.475 -6 5 C-6 4.01 -6 3.02 -6 2 C-6.99 1.67 -7.98 1.34 -9 1 C-5.57367167 -0.61798838 -3.61944899 -1.34053666 0 0 Z " fill="#3C2874" transform="translate(169,228)"/>
<path d="M0 0 C-0.33 0.99 -0.66 1.98 -1 3 C-3.97 3 -6.94 3 -10 3 C-4 0 -4 0 0 0 Z " fill="#3A296D" transform="translate(264,193)"/>
<path d="M0 0 C1.98 0.66 3.96 1.32 6 2 C5.67 2.66 5.34 3.32 5 4 C3.35 4 1.7 4 0 4 C-0.33 3.01 -0.66 2.02 -1 1 C-0.67 0.67 -0.34 0.34 0 0 Z " fill="#2C1A5F" transform="translate(203,146)"/>
<path d="M0 0 C1.98 0 3.96 0 6 0 C5.67 1.32 5.34 2.64 5 4 C3.02 3.34 1.04 2.68 -1 2 C-0.67 1.34 -0.34 0.68 0 0 Z " fill="#412C83" transform="translate(253,102)"/>
<path d="M0 0 C2.475 0.99 2.475 0.99 5 2 C4.67 2.99 4.34 3.98 4 5 C2.35 4.67 0.7 4.34 -1 4 C-0.67 2.68 -0.34 1.36 0 0 Z " fill="#F1EEF7" transform="translate(205,81)"/>
<path d="M0 0 C1.98 0.66 3.96 1.32 6 2 C5.67 2.99 5.34 3.98 5 5 C3.35 5 1.7 5 0 5 C0.66 4.67 1.32 4.34 2 4 C2 3.34 2 2.68 2 2 C1.34 2 0.68 2 0 2 C0 1.34 0 0.68 0 0 Z " fill="#382175" transform="translate(218,330)"/>
<path d="M0 0 C0.33 0 0.66 0 1 0 C1.66 2.64 2.32 5.28 3 8 C0.525 7.01 0.525 7.01 -2 6 C-1.34 4.02 -0.68 2.04 0 0 Z " fill="#D9CFEA" transform="translate(51,244)"/>
<path d="M0 0 C1.875 0.3125 1.875 0.3125 4 1 C4.66 1.99 5.32 2.98 6 4 C4.35 4 2.7 4 1 4 C0.67 2.68 0.34 1.36 0 0 Z " fill="#28116A" transform="translate(112,178)"/>
<path d="M0 0 C0.66 0 1.32 0 2 0 C0.25 5.75 0.25 5.75 -2 8 C-3 5 -3 5 -1.6875 2.3125 C-1.130625 1.549375 -0.57375 0.78625 0 0 Z " fill="#39266B" transform="translate(290,175)"/>
<path d="M0 0 C0.66 0.33 1.32 0.66 2 1 C0.68 3.64 -0.64 6.28 -2 9 C-3 5 -3 5 -2 2 C-1.34 2 -0.68 2 0 2 C0 1.34 0 0.68 0 0 Z " fill="#36256A" transform="translate(169,99)"/>
<path d="M0 0 C1.65 0 3.3 0 5 0 C5 0.66 5 1.32 5 2 C6.32 2.33 7.64 2.66 9 3 C8.67 3.66 8.34 4.32 8 5 C5.36 3.68 2.72 2.36 0 1 C0 0.67 0 0.34 0 0 Z " fill="#34216D" transform="translate(243,98)"/>
<path d="M0 0 C2.9719385 1.12451727 5.33440687 2.22293791 8 4 C5.39417629 4.93065133 4.35801776 5.14917407 1.75 4.0625 C1.1725 3.711875 0.595 3.36125 0 3 C0 2.01 0 1.02 0 0 Z " fill="#E6E1F3" transform="translate(234,95)"/>
</svg>
